<svg width="18" height="18" viewBox="0 0 18 18" fill="none" xmlns="http://www.w3.org/2000/svg">
<g id="premium-svgrepo-com 3">
<path id="Vector" d="M13.6607 1.92859C13.8165 1.92859 13.9612 2.00373 14.0511 2.12777L14.0861 2.18384L16.6619 7.01346L16.6894 7.07929L16.6969 7.10359L16.7078 7.15328L16.7138 7.20985L16.7125 7.27375L16.7143 7.23216C16.7143 7.29972 16.7004 7.36407 16.6752 7.42251L16.6567 7.46082L16.6306 7.50364L16.5967 7.54767L9.38562 15.8816C9.32127 15.968 9.23314 16.025 9.13742 16.0524L9.10013 16.0614L9.03752 16.0701L8.99985 16.0714L8.93517 16.0671L8.88047 16.0567L8.81406 16.0349L8.79754 16.0271C8.73949 16.0014 8.68613 15.9632 8.64152 15.913L1.39543 7.53835L1.3555 7.48204L1.3247 7.42219L1.30241 7.35835L1.28753 7.27407L1.28735 7.19217L1.29691 7.12872L1.30307 7.10352L1.32486 7.04175L1.34244 7.0053L3.91387 2.18384C3.98719 2.04637 4.12158 1.95405 4.27332 1.93311L4.33929 1.92859H13.6607ZM11.511 7.7143H6.48705L9.00062 14.2457L11.511 7.7143ZM5.45464 7.7143H2.8215L7.56126 13.1902L5.45464 7.7143ZM15.1765 7.7143H12.5453L10.4413 13.1857L15.1765 7.7143ZM6.44397 2.89223H4.62793L2.57014 6.75002H5.41478L6.44397 2.89223ZM10.5576 2.89223H7.44169L6.4125 6.75002H11.5862L10.5576 2.89223ZM13.3714 2.89223H11.5553L12.5845 6.75002H15.4279L13.3714 2.89223Z" fill="#D4A373"/>
</g>
</svg>
