<svg width="67" height="67" viewBox="0 0 67 67" fill="none" xmlns="http://www.w3.org/2000/svg">
<g id="plus-svgrepo-com 1" clip-path="url(#clip0_2290_308)">
<g id="Group">
<g id="Group_2">
<path id="Vector" d="M57.2001 57.2001C70.2666 44.1336 70.2666 22.8664 57.2001 9.79988C44.1336 -3.26663 22.8664 -3.26663 9.79988 9.79988C-3.26663 22.8664 -3.26663 44.1336 9.79988 57.2001C22.8664 70.2666 44.1336 70.2666 57.2001 57.2001ZM12.1644 12.1644C23.9325 0.396369 43.0675 0.396369 54.8356 12.1644C66.6036 23.9325 66.6036 43.0675 54.8356 54.8356C43.0675 66.6036 23.9325 66.6036 12.1644 54.8356C0.396369 43.0675 0.410037 23.9325 12.1644 12.1644Z" fill="#495057"/>
<path id="Vector_2" d="M33.5 46.0471C33.9647 46.0471 34.3747 45.8558 34.6891 45.5551C34.9898 45.2544 35.1811 44.8307 35.1811 44.366V35.1675H44.3796C44.8443 35.1675 45.2543 34.9761 45.5687 34.6754C45.8694 34.3747 46.0607 33.951 46.0607 33.4863C46.0607 32.5569 45.309 31.8052 44.3933 31.8189H35.1948V22.6204C35.1948 21.6909 34.443 20.9392 33.5273 20.9529C32.5979 20.9529 31.8461 21.7046 31.8598 22.6204V31.8189H22.6613C21.7319 31.8189 20.9802 32.5706 20.9938 33.4863C20.9938 34.4158 21.7456 35.1675 22.6613 35.1538H31.8598V44.3523C31.8188 45.2954 32.5705 46.0471 33.5 46.0471Z" fill="#495057"/>
</g>
</g>
</g>
<defs>
<clipPath id="clip0_2290_308">
<rect width="67" height="67" fill="white"/>
</clipPath>
</defs>
</svg>
